<?xml version="1.0" encoding="UTF-8"?>
<svg version="1.1" xmlns="http://www.w3.org/2000/svg" width="802" height="802">
<path d="M0 0 C1.21945312 0.39316406 2.43890625 0.78632813 3.6953125 1.19140625 C20.5481225 7.28826516 36.29874285 17.54781714 50 29 C50 28.01 50 27.02 50 26 C50.66 26 51.32 26 52 26 C52.33 26.66 52.66 27.32 53 28 C53.83660156 27.38253906 54.67320312 26.76507813 55.53515625 26.12890625 C64.07087313 19.89212591 72.79135743 14.19297346 82 9 C83.66095703 8.05640625 83.66095703 8.05640625 85.35546875 7.09375 C114.69670457 -8.59159998 154.62070938 -13.84949107 187.02148438 -7.41210938 C193.30113851 -6.28580262 199.26962524 -5.88874338 205.625 -6.05078125 C206.36463486 -6.06728729 207.10426971 -6.08379333 207.86631775 -6.10079956 C211.54112391 -6.1948542 215.20107958 -6.35112742 218.86938477 -6.58789062 C228.66777417 -7.04672039 228.66777417 -7.04672039 232.44702148 -4.07739258 C234.24238423 -1.7930367 235.65229911 0.43143408 237 3 C243.48017846 12.8247867 250.38824911 20.84999785 259.66796875 28.078125 C269.63151943 35.93902292 276.27194949 44.82886086 282.6640625 55.72851562 C283.67036144 57.43951806 284.68477953 59.14574923 285.703125 60.84960938 C302.93048032 89.69831079 316.36111459 120.53771406 312 155 C313.32 154.34 314.64 153.68 316 153 C315.67 153.99 315.34 154.98 315 156 C316.44439453 156.33257812 316.44439453 156.33257812 317.91796875 156.671875 C338.21299213 161.67163343 359.90782487 169.36103758 376 183 C377.45986328 184.14082031 377.45986328 184.14082031 378.94921875 185.3046875 C384.28953008 189.5157379 389.152015 194.02220123 393.89453125 198.890625 C395.82178867 200.82145804 397.79938564 202.60672813 399.875 204.375 C412.95882358 215.74205945 421.25039399 227.52399173 429.18774414 242.80004883 C431.71502074 247.61412052 434.58484061 251.79386364 438 256 C439.02411613 257.39342655 440.04491748 258.78929501 441.0625 260.1875 C443.46884045 263.40858564 446.11435011 266.19450705 449 269 C451.8515276 273.27729139 451.49852816 276.97695111 451 282 C450.3261371 283.92532256 449.64572916 285.85056677 448.86328125 287.734375 C445.37037921 296.90126724 444.81247098 306.06343477 444.5625 315.75 C444.03823533 333.3394202 439.66924639 348.18101236 433.05126953 364.41259766 C432.04227828 366.89594399 431.0637805 369.389458 430.08984375 371.88671875 C423.3055432 388.98322619 414.99180127 403.91566453 402 417 C401.09902745 418.00745113 400.20584621 419.02192057 399.3203125 420.04296875 C392.90370233 427.41130823 385.92839916 433.3026448 378 439 C379.08612416 442.75206527 380.52509407 446.09448931 382.33203125 449.5390625 C390.71452224 466.00873471 395.49537474 484.56681884 396 503 C396.02884277 503.67369629 396.05768555 504.34739258 396.08740234 505.04150391 C397.08672744 529.57644913 396.09344971 557.70944159 384.06738281 579.70581055 C381.00230117 585.43487344 379.33944382 591.28176407 377.75 597.5625 C377.481875 598.56474609 377.21375 599.56699219 376.9375 600.59960938 C375.56912832 605.90204965 374.72768081 610.53211741 375 616 C374.625 619.125 374.625 619.125 373 622 C368.2418357 625.37209035 362.63972109 627.14630088 357.18725586 629.07714844 C346.89563468 632.74689663 338.71214594 638.04330907 330.15307617 644.82226562 C319.80324545 652.97862314 309.68812356 657.33053506 297.05053711 660.74658203 C291.42167545 662.2707015 286.0081065 664.04857513 280.5625 666.125 C265.2308476 671.77553584 250.19855868 673.71361998 234 672 C232.54999125 671.9330969 231.09935535 671.87881862 229.6484375 671.8359375 C218.71847413 671.49726258 208.59039378 669.69141213 198 667 C198.33 667.99 198.66 668.98 199 670 C197.68 670 196.36 670 195 670 C194.55011719 670.98097656 194.10023438 671.96195313 193.63671875 672.97265625 C189.08977373 682.61068692 183.72293516 690.9402378 177.22509766 699.36474609 C175.5760688 701.56586113 174.1116085 703.87458802 172.625 706.1875 C164.21196292 718.32168809 150.97310356 727.61556511 138.65136719 735.37475586 C135.35418818 737.45725412 132.11635294 739.59505218 128.9296875 741.84375 C128.24334229 742.32682617 127.55699707 742.80990234 126.84985352 743.30761719 C125.54283455 744.23294589 124.24074738 745.16530364 122.94506836 746.10644531 C114.25467413 752.242449 104.82965363 755.54565238 94.625 758.25 C86.37998241 760.55035024 78.43603378 763.19686659 70.5625 766.5625 C69.72992676 766.9140918 68.89735352 767.26568359 68.03955078 767.62792969 C62.89991696 769.89532334 58.55198979 772.57584382 54.12084961 776.03881836 C52 777 52 777 49.37744141 776.24560547 C46.98322338 774.99121028 44.71266343 773.64653036 42.4375 772.1875 C36.86136982 768.78721884 31.08294454 766.3451352 25 764 C24.1853125 763.67386719 23.370625 763.34773437 22.53125 763.01171875 C18.11171709 761.31243632 13.66955311 759.88980456 9.09765625 758.6640625 C-5.71114022 754.69074189 -17.13909504 749.40332792 -29.41113281 740.11621094 C-33.34977084 737.14445878 -37.34606113 734.53706706 -41.625 732.0625 C-48.47093453 727.97009633 -53.90859335 722.83360961 -59.59863281 717.31445312 C-61.37141847 715.65161724 -63.27104532 714.18064139 -65.1875 712.6875 C-70.53503002 708.07019992 -73.98580248 701.82375408 -77.74755859 695.92236328 C-79.65984539 692.98720807 -81.71060355 690.16079991 -83.75 687.3125 C-87.81728328 681.48971079 -91.03793588 675.44684544 -94 669 C-94.99 669 -95.98 669 -97 669 C-96.67 668.34 -96.34 667.68 -96 667 C-96.98613281 667.26554688 -97.97226563 667.53109375 -98.98828125 667.8046875 C-112.83828512 671.30900511 -126.75967177 672.32391994 -141 673 C-142.17046875 673.06058594 -143.3409375 673.12117187 -144.546875 673.18359375 C-149.81721242 672.9033835 -154.89699378 671.86171935 -160.0625 670.8125 C-161.18430664 670.58618896 -162.30611328 670.35987793 -163.46191406 670.12670898 C-170.39346421 668.6770288 -176.82739469 666.91464037 -183.4140625 664.3125 C-187.18217957 662.93331989 -190.96143922 661.8666184 -194.83203125 660.81982422 C-209.84617928 656.74868023 -220.77938268 650.77832275 -232.921875 641.12109375 C-239.20100042 636.22202879 -245.34095314 632.58225618 -252.875 630 C-269.9871906 623.79189355 -269.9871906 623.79189355 -272.625 619.125 C-273 616 -273 616 -272.8671875 612.984375 C-273.03999764 607.80007092 -274.1871349 603.12765462 -275.5 598.125 C-275.76409668 597.10921875 -276.02819336 596.0934375 -276.30029297 595.046875 C-278.24614668 587.9311221 -280.83104713 581.51934089 -284.16235352 574.95629883 C-294.88989734 553.54548607 -294.7109116 526.46008276 -294 503 C-293.95552734 501.06833984 -293.95552734 501.06833984 -293.91015625 499.09765625 C-293.52400568 489.9713172 -291.72190599 481.69216111 -289 473 C-288.74412109 472.1656543 -288.48824219 471.33130859 -288.22460938 470.47167969 C-282.33761597 451.42511905 -282.33761597 451.42511905 -276.96875 442.9609375 C-275.65128509 440.87329472 -275.65128509 440.87329472 -277 438 C-279.01122451 436.36774509 -281.03398313 434.83548252 -283.125 433.3125 C-295.11922886 424.22567969 -305.95044797 412.73109066 -314 400 C-314.35803711 399.44376953 -314.71607422 398.88753906 -315.08496094 398.31445312 C-321.6864978 387.87455433 -326.35905105 376.70085352 -330.875 365.25 C-331.15185638 364.55138855 -331.42871277 363.8527771 -331.71395874 363.13299561 C-336.83866343 350.12869268 -341.99027883 336.84945033 -342.17578125 322.69921875 C-342.34717628 302.73586492 -342.34717628 302.73586492 -348.1015625 283.81640625 C-349.93473316 280.11021339 -349.60561116 276.00444928 -349 272 C-347.22848335 268.1934353 -344.54220735 265.53521112 -341.578125 262.609375 C-334.03504404 254.97486276 -328.93121674 246.28005528 -323.9375 236.875 C-315.34230747 220.77456077 -303.62522178 208.22856741 -289.69921875 196.4921875 C-287.97373326 194.97693358 -286.44107019 193.36570854 -284.875 191.6875 C-279.60253991 186.33077685 -273.2185537 182.17896862 -267 178 C-266.20110352 177.44852295 -265.40220703 176.8970459 -264.57910156 176.32885742 C-257.48700838 171.5902146 -250.20721286 168.33682613 -242.25 165.3125 C-241.02313477 164.83772217 -239.79626953 164.36294434 -238.53222656 163.8737793 C-230.13751184 160.67603087 -221.79254026 157.86916247 -213 156 C-213 155.01 -213 154.02 -213 153 C-212.01 153.66 -211.02 154.32 -210 155 C-210.13019531 154.12085938 -210.26039063 153.24171875 -210.39453125 152.3359375 C-213.79834311 120.07925314 -201.07695007 90.97509557 -185.5 63.6875 C-184.88334473 62.60235107 -184.26668945 61.51720215 -183.63134766 60.39916992 C-175.59710888 46.50305385 -166.72414698 34.33940629 -153.79394531 24.73242188 C-147.30801443 19.84809564 -142.40218065 14.24377156 -137.9375 7.5 C-137.47811035 6.80922363 -137.0187207 6.11844727 -136.54541016 5.40673828 C-134.97937376 3.04002961 -134.97937376 3.04002961 -133.72460938 0.6027832 C-132.03850377 -2.15938406 -130.56895268 -4.01068043 -128 -6 C-123.53563436 -6.90106462 -119.25228726 -6.74169016 -114.73977661 -6.45043945 C-111.03784957 -6.21590711 -107.33296668 -6.13352999 -103.625 -6.05078125 C-102.88596939 -6.03193878 -102.14693878 -6.01309631 -101.38551331 -5.99368286 C-94.78579262 -5.87943802 -88.5362098 -6.71858391 -82.0625 -8 C-55.3831645 -13.04488384 -25.69076599 -8.47912231 0 0 Z M-44.80078125 256.95703125 C-46.66794039 258.69153255 -48.57317045 260.2862677 -50.5625 261.875 C-55.37679024 265.97731774 -59.13913926 271.02169776 -63 276 C-63.67160156 276.8559375 -64.34320313 277.711875 -65.03515625 278.59375 C-88.67144943 309.79553663 -97.05367284 347.87048069 -92.37109375 386.31103516 C-88.56193908 413.91237036 -76.06363954 440.47059784 -57.04296875 460.80078125 C-55.30846745 462.66794039 -53.7137323 464.57317045 -52.125 466.5625 C-48.02268226 471.37679024 -42.97830224 475.13913926 -38 479 C-37.1440625 479.67160156 -36.288125 480.34320313 -35.40625 481.03515625 C-4.20446337 504.67144943 33.87048069 513.05367284 72.31103516 508.37109375 C99.91237036 504.56193908 126.47059784 492.06363954 146.80078125 473.04296875 C148.66794039 471.30846745 150.57317045 469.7137323 152.5625 468.125 C157.37679024 464.02268226 161.13913926 458.97830224 165 454 C165.67160156 453.1440625 166.34320312 452.288125 167.03515625 451.40625 C190.67144943 420.20446337 199.05367284 382.12951931 194.37109375 343.68896484 C190.56193908 316.08762964 178.06363954 289.52940216 159.04296875 269.19921875 C157.30846745 267.33205961 155.7137323 265.42682955 154.125 263.4375 C150.02268226 258.62320976 144.97830224 254.86086074 140 251 C139.1440625 250.32839844 138.288125 249.65679687 137.40625 248.96484375 C83.89143343 208.42575831 4.61442454 210.72476947 -44.80078125 256.95703125 Z " fill="#F5FEF7" transform="translate(350,17)"/>
<path d="M0 0 C0.99 0 1.98 0 3 0 C3 0.66 3 1.32 3 2 C2.01 2 1.02 2 0 2 C0 1.34 0 0.68 0 0 Z " fill="#FEFFFE" transform="translate(728,456)"/>
<path d="M0 0 C0.99 0 1.98 0 3 0 C3 0.66 3 1.32 3 2 C2.01 2 1.02 2 0 2 C0 1.34 0 0.68 0 0 Z " fill="#FEFFFE" transform="translate(71,456)"/>
</svg>
